<svg xmlns="http://www.w3.org/2000/svg" xmlns:xlink="http://www.w3.org/1999/xlink" viewBox="0,0,256,256" width="32px" height="32px" fill-rule="nonzero"><g fill="none" fill-rule="nonzero" stroke="none" stroke-width="1" stroke-linecap="butt" stroke-linejoin="miter" stroke-miterlimit="10" stroke-dasharray="" stroke-dashoffset="0" font-family="none" font-weight="none" font-size="none" text-anchor="none" style="mix-blend-mode: normal"><g transform="scale(8,8)"><circle cx="16" cy="16" r="14" fill="#449bb3"></circle><path d="M19.213,23.49c-0.229,0 -0.458,-0.054 -0.671,-0.16l-4.949,-2.475c-0.391,-0.195 -0.676,-0.551 -0.783,-0.975c-0.107,-0.424 -0.024,-0.871 0.227,-1.229l0.78,-1.111l-2.289,1.464c-0.443,0.282 -1.009,0.313 -1.48,0.078l-2.293,-1.147c-0.534,-0.267 -0.851,-0.803 -0.828,-1.399c0.023,-0.597 0.381,-1.107 0.935,-1.331l12.33,-5.009c0.504,-0.208 1.063,-0.127 1.491,0.21c0.429,0.338 0.637,0.86 0.557,1.399l-1.541,10.402c-0.071,0.481 -0.36,0.887 -0.792,1.111c-0.221,0.116 -0.457,0.172 -0.694,0.172zM17.544,13.969l-3.689,5.258c-0.085,0.121 -0.112,0.267 -0.076,0.409c0.037,0.144 0.129,0.259 0.261,0.325l4.949,2.475c0.145,0.073 0.311,0.069 0.455,-0.004c0.144,-0.074 0.24,-0.21 0.264,-0.37l1.541,-10.402c0.039,-0.259 -0.117,-0.412 -0.186,-0.467c-0.068,-0.053 -0.254,-0.168 -0.497,-0.07l-12.33,5.009c-0.277,0.113 -0.308,0.368 -0.311,0.444c-0.003,0.075 0.008,0.332 0.275,0.466l2.296,1.147c0.154,0.078 0.343,0.067 0.492,-0.025z" fill="#fbfbfa"></path><path d="M16,31c-8.271,0 -15,-6.729 -15,-15c0,-8.271 6.729,-15 15,-15c8.271,0 15,6.729 15,15c0,8.271 -6.729,15 -15,15zM16,3c-7.168,0 -13,5.832 -13,13c0,7.168 5.832,13 13,13c7.168,0 13,-5.832 13,-13c0,-7.168 -5.832,-13 -13,-13z" fill="#f2ead3"></path></g></g></svg>