<svg xmlns="http://www.w3.org/2000/svg" xmlns:xlink="http://www.w3.org/1999/xlink" viewBox="0,0,256,256" width="32px" height="32px" fill-rule="nonzero"><g fill="none" fill-rule="nonzero" stroke="none" stroke-width="1" stroke-linecap="butt" stroke-linejoin="miter" stroke-miterlimit="10" stroke-dasharray="" stroke-dashoffset="0" font-family="none" font-weight="none" font-size="none" text-anchor="none" style="mix-blend-mode: normal"><g transform="scale(8,8)"><rect x="4" y="4" width="24" height="24" fill="#b64c3c"></rect><path d="M16,21c-2.757,0 -5,-2.243 -5,-5c0,-2.757 2.243,-5 5,-5c2.757,0 5,2.243 5,5c0,2.757 -2.243,5 -5,5zM16,12c-2.206,0 -4,1.794 -4,4c0,2.206 1.794,4 4,4c2.206,0 4,-1.794 4,-4c0,-2.206 -1.794,-4 -4,-4z" fill="#ffffff"></path><path d="M20.5,25h-9c-2.481,0 -4.5,-2.019 -4.5,-4.5v-9c0,-2.481 2.019,-4.5 4.5,-4.5h9c2.481,0 4.5,2.019 4.5,4.5v9c0,2.481 -2.019,4.5 -4.5,4.5zM11.5,8c-1.93,0 -3.5,1.57 -3.5,3.5v9c0,1.93 1.57,3.5 3.5,3.5h9c1.93,0 3.5,-1.57 3.5,-3.5v-9c0,-1.93 -1.57,-3.5 -3.5,-3.5z" fill="#ffffff"></path><path d="M29,29h-26v-26h26zM5,27h22v-22h-22z" fill-opacity="0" fill="#b64c3c"></path></g></g></svg>